# xmcd
#
# Track frame offsets:
#	150
#	23086
#	48536
#	90533
#	117415
#	143884
#	223356
#	259338
#
# Disc length: 4100 seconds
# Revision: 1
# Processed by: cddbd v1.5.2PL0 Copyright (c) Steve Scherf et al.
# Submitted via: dBpowerAMP V12.0
#
DISCID=78100208
DTITLE=Dżem - Pamieci Pawła Bergera - CD2
DYEAR=2007
DGENRE=Blues
TTITLE0=Zapal świeczkę
TTITLE1=Magazyn mód
TTITLE2=Najmenik II
TTITLE3=Powiedz, czy słyszysz
TTITLE4=Sen o Victorii
TTITLE5=Niewinni i ja cz. I i II
TTITLE6=Skazany na bluesa
TTITLE7=Autsajder
EXTD=
EXTT0=
EXTT1=
EXTT2=
EXTT3=
EXTT4=
EXTT5=
EXTT6=
EXTT7=
PLAYORDER=
